<svg id="Layer_1" data-name="Layer 1" xmlns="http://www.w3.org/2000/svg" viewBox="0 0 120 120"><path d="M108.31,44.37H86.78a30.76,30.76,0,0,0-53.56,0H11.69a51.89,51.89,0,0,0,0,31.26H33.22a30.76,30.76,0,0,0,53.56,0h21.53a51.89,51.89,0,0,0,0-31.26Z" fill="none" stroke="#f7fcff" stroke-miterlimit="10"/><path d="M115.49,44.37h-7.18a50.58,50.58,0,0,0-96.62,0H4.51a57.46,57.46,0,0,1,111,0Z" fill="none" stroke="#f7fcff" stroke-miterlimit="10"/><path d="M108.31,44.37H101a43.69,43.69,0,0,0-82,0H11.69a50.58,50.58,0,0,1,96.62,0Z" fill="none" stroke="#f7fcff" stroke-miterlimit="10"/><path d="M101,44.37H93.57a36.81,36.81,0,0,0-67.14,0H19a43.69,43.69,0,0,1,82,0Z" fill="none" stroke="#f7fcff" stroke-miterlimit="10"/><path d="M108.31,75.63a50.58,50.58,0,0,1-96.62,0H19a43.72,43.72,0,0,0,82.08,0Z" fill="none" stroke="#f7fcff" stroke-miterlimit="10"/><path d="M115.49,44.37H86.78a30.76,30.76,0,0,0-53.56,0H4.51a59.22,59.22,0,0,0,0,31.26H33.22a30.76,30.76,0,0,0,53.56,0h28.71a59.22,59.22,0,0,0,0-31.26Z" fill="none" stroke="#f7fcff" stroke-miterlimit="10"/><path d="M101,75.63a43.72,43.72,0,0,1-82.08,0h7.47a36.81,36.81,0,0,0,67.14,0Z" fill="none" stroke="#f7fcff" stroke-miterlimit="10"/><path d="M115.49,75.63a57.46,57.46,0,0,1-111,0h7.18a50.58,50.58,0,0,0,96.62,0Z" fill="none" stroke="#f7fcff" stroke-miterlimit="10"/><path d="M82.57,48.91H78a20.67,20.67,0,0,0-36,0H37.43a24.75,24.75,0,0,1,45.14,0Z" fill="none" stroke="#f7fcff" stroke-miterlimit="10"/><path d="M82.57,71.87a24.75,24.75,0,0,1-45.14,0H42a20.68,20.68,0,0,0,36,0Z" fill="none" stroke="#f7fcff" stroke-miterlimit="10"/><rect x="-7.05" y="44.37" width="134.09" height="31.27" fill="none"/><text transform="translate(15.31 66.36) scale(0.99 1)" font-size="21" fill="#f7fcff" font-family="Montserrat-Regular, Montserrat"><tspan letter-spacing="-0.01em">T</tspan><tspan x="11.93" y="0" letter-spacing="-0.01em">h</tspan><tspan x="25.85" y="0">e </tspan><tspan x="44.04" y="0" letter-spacing="-0.02em">H</tspan><tspan x="60.64" y="0" letter-spacing="-0.03em">u</tspan><tspan x="74.24" y="0">b</tspan></text></svg>