<svg id="Layer_1" data-name="Layer 1" xmlns="http://www.w3.org/2000/svg" viewBox="0 0 120 120"><path d="M108.31,44.37H86.78c-10.39-20.44-43.17-20.44-53.56,0H11.69a52.17,52.17,0,0,0,0,31.26H33.22c10.39,20.44,43.17,20.44,53.56,0h21.53A52.17,52.17,0,0,0,108.31,44.37Z" fill="none" stroke="#f7fcff" stroke-miterlimit="10" stroke-width="2"/><path d="M115.49,44.37h-7.18c-13.4-46.67-83.23-46.65-96.62,0H4.51C18.45-11.4,101.56-11.38,115.49,44.37Z" fill="none" stroke="#f7fcff" stroke-miterlimit="10" stroke-width="2"/><path d="M108.31,44.37H101C88.29,6.79,31.7,6.8,19,44.37H11.69C25.09-2.3,94.92-2.28,108.31,44.37Z" fill="none" stroke="#f7fcff" stroke-miterlimit="10" stroke-width="2"/><path d="M101,44.37H93.57c-11.87-28.49-55.28-28.48-67.14,0H19C31.71,6.79,88.3,6.8,101,44.37Z" fill="none" stroke="#f7fcff" stroke-miterlimit="10" stroke-width="2"/><path d="M108.31,75.63c-13.4,46.67-83.23,46.65-96.62,0H19c12.77,37.58,69.32,37.56,82.08,0Z" fill="none" stroke="#f7fcff" stroke-miterlimit="10" stroke-width="2"/><path d="M115.49,44.37H86.78c-10.39-20.44-43.17-20.44-53.56,0H4.51a59.52,59.52,0,0,0,0,31.26H33.22c10.39,20.44,43.17,20.44,53.56,0h28.71A59.52,59.52,0,0,0,115.49,44.37Z" fill="none" stroke="#f7fcff" stroke-miterlimit="10" stroke-width="2"/><path d="M101,75.63c-12.77,37.58-69.32,37.56-82.08,0h7.47c11.84,28.49,55.31,28.48,67.14,0Z" fill="none" stroke="#f7fcff" stroke-miterlimit="10" stroke-width="2"/><path d="M115.49,75.63c-13.94,55.77-97,55.75-111,0h7.18c13.4,46.67,83.23,46.65,96.62,0Z" fill="none" stroke="#f7fcff" stroke-miterlimit="10" stroke-width="2"/><path d="M93.57,44.37H86.78c-10.39-20.44-43.17-20.44-53.56,0H26.43C38.3,15.88,81.71,15.89,93.57,44.37Z" fill="none" stroke="#f7fcff" stroke-miterlimit="10" stroke-width="2"/><path d="M93.57,75.63c-11.84,28.49-55.31,28.48-67.14,0h6.79c10.39,20.44,43.17,20.44,53.56,0Z" fill="none" stroke="#f7fcff" stroke-miterlimit="10" stroke-width="2"/><rect x="-7.05" y="44.37" width="134.09" height="31.27" fill="none"/><text transform="translate(15.31 67.43) scale(0.99 1)" font-size="21" fill="#f7fcff" font-family="Montserrat-Regular, Montserrat"><tspan letter-spacing="-0.01em">T</tspan><tspan x="11.93" y="0" letter-spacing="-0.01em">h</tspan><tspan x="25.85" y="0">e </tspan><tspan x="44.04" y="0" letter-spacing="-0.02em">H</tspan><tspan x="60.64" y="0" letter-spacing="-0.03em">u</tspan><tspan x="74.24" y="0">b</tspan></text></svg>